{
  "accessors": [
    {
      "bufferView": 2,
      "componentType": 5126,
      "count": 352,
      "max": [
        -11.663013458251953,
        83.2927474975586,
        18.288002014160156
      ],
      "min": [
        -16.756263732910156,
        41.7125358581543,
        -18.11211585998535
      ],
      "type": "VEC3"
    },
    {
      "bufferView": 2,
      "byteOffset": 4224,
      "componentType": 5126,
      "count": 352,
      "max": [
        0.9791582226753235,
        0.9964033365249634,
        0.9811533689498901
      ],
      "min": [
        -0.9808312654495239,
        -0.9950353503227234,
        -0.9811539053916931
      ],
      "type": "VEC3"
    },
    {
      "bufferView": 3,
      "componentType": 5126,
      "count": 352,
      "max": [
        0.8853366374969482,
        0.9999558329582214,
        0.983670711517334,
        1.0
      ],
      "min": [
        -0.9794544577598572,
        -0.9999721646308899,
        -0.9836714267730713,
        -1.0
      ],
      "type": "VEC4"
    },
    {
      "bufferView": 1,
      "componentType": 5126,
      "count": 352,
      "max": [
        0.5790719985961914,
        0.6605430245399475
      ],
      "min": [
        0.20140600204467773,
        0.5678439736366272
      ],
      "type": "VEC2"
    },
    {
      "bufferView": 0,
      "componentType": 5125,
      "count": 1248,
      "type": "SCALAR"
    },
    {
      "bufferView": 2,
      "byteOffset": 8448,
      "componentType": 5126,
      "count": 8167,
      "max": [
        25.636272430419922,
        88.06289672851563,
        27.52819061279297
      ],
      "min": [
        -25.727724075317383,
        -0.19151300191879272,
        -27.653446197509766
      ],
      "type": "VEC3"
    },
    {
      "bufferView": 2,
      "byteOffset": 106452,
      "componentType": 5126,
      "count": 8167,
      "max": [
        0.9999986290931702,
        1.0,
        1.0
      ],
      "min": [
        -0.9999985098838806,
        -1.0,
        -1.0
      ],
      "type": "VEC3"
    },
    {
      "bufferView": 3,
      "byteOffset": 5632,
      "componentType": 5126,
      "count": 8167,
      "max": [
        0.9999855160713196,
        1.0,
        1.0,
        1.0
      ],
      "min": [
        -0.9999672174453735,
        -1.0,
        -1.0,
        -1.0
      ],
      "type": "VEC4"
    },
    {
      "bufferView": 1,
      "byteOffset": 2816,
      "componentType": 5126,
      "count": 8167,
      "max": [
        0.9980890154838562,
        0.9950770139694214
      ],
      "min": [
        0.0023360000923275948,
        0.007681999821215868
      ],
      "type": "VEC2"
    },
    {
      "bufferView": 0,
      "byteOffset": 4992,
      "componentType": 5125,
      "count": 61728,
      "type": "SCALAR"
    }
  ],
  "asset": {
    "extras": {
      "author": "StefanSpo (https://sketchfab.com/stefanspoiala)",
      "license": "CC-BY-4.0 (http://creativecommons.org/licenses/by/4.0/)",
      "source": "https://sketchfab.com/3d-models/antique-bureau-chair-89c7bbee716e4c31b29860736a7827c7",
      "title": "Antique Bureau Chair"
    },
    "generator": "Sketchfab-15.34.0",
    "version": "2.0"
  },
  "bufferViews": [
    {
      "buffer": 0,
      "byteLength": 251904,
      "name": "floatBufferViews",
      "target": 34963
    },
    {
      "buffer": 0,
      "byteLength": 68152,
      "byteOffset": 251904,
      "byteStride": 8,
      "name": "floatBufferViews",
      "target": 34962
    },
    {
      "buffer": 0,
      "byteLength": 204456,
      "byteOffset": 320056,
      "byteStride": 12,
      "name": "floatBufferViews",
      "target": 34962
    },
    {
      "buffer": 0,
      "byteLength": 136304,
      "byteOffset": 524512,
      "byteStride": 16,
      "name": "floatBufferViews",
      "target": 34962
    }
  ],
  "buffers": [
    {
      "byteLength": 660816,
      "uri": "scene.bin"
    }
  ],
  "images": [
    {
      "uri": "textures/lambert1SG_1001_baseColor.jpeg"
    },
    {
      "uri": "textures/lambert1SG_1001_metallicRoughness.png"
    },
    {
      "uri": "textures/lambert1SG_1001_normal.png"
    }
  ],
  "materials": [
    {
      "doubleSided": true,
      "name": "lambert1SG_1001",
      "normalTexture": {
        "index": 2
      },
      "occlusionTexture": {
        "index": 1
      },
      "pbrMetallicRoughness": {
        "baseColorTexture": {
          "index": 0
        },
        "metallicRoughnessTexture": {
          "index": 1
        }
      }
    }
  ],
  "meshes": [
    {
      "name": "defaultMaterial",
      "primitives": [
        {
          "attributes": {
            "NORMAL": 1,
            "POSITION": 0,
            "TANGENT": 2,
            "TEXCOORD_0": 3
          },
          "indices": 4,
          "material": 0,
          "mode": 4
        }
      ]
    },
    {
      "name": "defaultMaterial",
      "primitives": [
        {
          "attributes": {
            "NORMAL": 6,
            "POSITION": 5,
            "TANGENT": 7,
            "TEXCOORD_0": 8
          },
          "indices": 9,
          "material": 0,
          "mode": 4
        }
      ]
    }
  ],
  "nodes": [
    {
      "children": [
        1
      ],
      "matrix": [
        1.0,
        0.0,
        0.0,
        0.0,
        0.0,
        2.220446049250313e-16,
        -1.0,
        0.0,
        0.0,
        1.0,
        2.220446049250313e-16,
        0.0,
        0.0,
        0.0,
        0.0,
        1.0
      ],
      "name": "Sketchfab_model"
    },
    {
      "children": [
        2,
        4
      ],
      "matrix": [
        1.0,
        0.0,
        0.0,
        0.0,
        0.0,
        -4.371139006309477e-08,
        0.999999999999999,
        0.0,
        0.0,
        -0.999999999999999,
        -4.371139006309477e-08,
        0.0,
        0.0,
        0.0,
        0.0,
        1.0
      ],
      "name": "Collada visual scene group"
    },
    {
      "children": [
        3
      ],
      "name": "textureEditorIsolateSelectSet"
    },
    {
      "mesh": 0,
      "name": "defaultMaterial"
    },
    {
      "children": [
        5
      ],
      "name": "polySurface2709"
    },
    {
      "mesh": 1,
      "name": "defaultMaterial"
    }
  ],
  "samplers": [
    {
      "magFilter": 9729,
      "minFilter": 9987,
      "wrapS": 10497,
      "wrapT": 10497
    }
  ],
  "scene": 0,
  "scenes": [
    {
      "name": "Sketchfab_Scene",
      "nodes": [
        0
      ]
    }
  ],
  "textures": [
    {
      "sampler": 0,
      "source": 0
    },
    {
      "sampler": 0,
      "source": 1
    },
    {
      "sampler": 0,
      "source": 2
    }
  ]
}
